DataType=double
version=3
OpenSimVersion=4.5-2023-11-26-efcdfd3eb
endheader
time	EMG01_right_gast_med	EMG02_right_glut_max	EMG03_left_gast_med	EMG04_left_glut_max	EMG05_right_glut_med	EMG06_right_bic_fem	EMG07_right_rect_fem	EMG08_right_vast_lat	EMG09_right_vast_med	EMG10_right_tens_fasc_lat	EMG11_left_glut_med	EMG12_left_bic_fem	EMG13_left_rect_fem	EMG14_left_vast_lat	EMG15_left_vast_med	EMG16_left_tens_fasc_lat
1.67	0.09294819923393757	0.1291050298337706	0.05373136562529419	0.07371827988310826	0.1058782605811341	0.2210691877627345	0.07832590538255582	0.04809686055086242	0.07985827760133125	0.1231813261474487	0.02550119933253838	0.005913048180704552	0.03381000253290836	0.02795812789646031	0.04162739969762557	0.109167679653761
1.68	0.09989364601770548	0.1302315887321214	0.04077402396705841	0.07751363458550439	0.1036501775513301	0.2071131988750198	0.07658826111832602	0.04743987434718887	0.07925662560270141	0.1245454424422033	0.02518843711946034	0.005128427521761877	0.03253872634876483	0.02793974454496789	0.04160733440521076	0.1166229105627266
1.69	0.1077026308761969	0.1307859185672032	0.0290063656143821	0.08113287378175732	0.1009551229626059	0.19300704669658	0.07461995884740129	0.04660423834849019	0.07832492017530188	0.1254227163079885	0.02495382724588526	0.004533883457442018	0.03118882687787186	0.02786523842554177	0.04131061157771523	0.1238295051520638
1.7	0.1164199138384262	0.1307481269150282	0.01844229773354248	0.08454442738314079	0.09782836983004718	0.1788827165994538	0.07244609011823162	0.04559703756942076	0.07707421740610519	0.1257963166473322	0.02480623890469305	0.004157592717385759	0.02977809059319551	0.02774339779861977	0.04073818837098549	0.1306742564123453
1.71	0.1260842403690038	0.130106054030788	0.009079982255366568	0.08771958472783403	0.09430967823283601	0.1648674456918671	0.07009370748082944	0.04442741854070198	0.07551859983115175	0.1256555066370109	0.02475513744976755	0.004027272201757576	0.02832590846530135	0.02758478411440223	0.03989528123904045	0.1370510571258797
1.72	0.1367273498010754	0.1288552549218457	0.0009030948166105123	0.09063294995699822	0.09044278313703563	0.151081944071608	0.06759144327131875	0.04310646662112303	0.07367495927995907	0.1249960307264779	0.02481048697346512	0.004169856701459675	0.02685310036039257	0.02740167203826639	0.03879145391756575	0.1428625342947385
1.73	0.1483729465116697	0.1269988789214047	-0.006117762842540926	0.09326281372064431	0.08627487415073921	0.13763881837391	0.06496912146396921	0.04164704500478088	0.07156275192666876	0.1238204280456294	0.02498263870109951	0.004611161752717466	0.02538172140646439	0.02720794154193544	0.03744063322271925	0.1480215450767014
1.74	0.1610356287754907	0.1245474550223896	-0.01202353313631876	0.0955914277213858	0.08185607080222297	0.1246412209000214	0.06225736711446926	0.04006360068589178	0.06920372854502854	0.1221382557988256	0.0252822071046077	0.005375533318779774	0.02393485209981319	0.02701891934012453	0.03586104906285071	0.1524524932444975
1.75	0.1747197712097887	0.121518593329473	-0.01686509085499226	0.09760517399623693	0.07723889770204731	0.1121817393225681	0.0594872181646051	0.03837194328654697	0.06662164456913069	0.1199662078552366	0.0257199354978563	0.006485486704856287	0.02253637426522922	0.02685116983171077	0.03407509828668646	0.1560924294786583
1.76	0.1894183630795568	0.1179366140252413	-0.02070158353992657	0.09929462763707513	0.07247776414155079	0.100341534410836	0.05668974418647697	0.03658900272517786	0.06384195554132192	0.117328116854389	0.02630655256506705	0.007961337953391198	0.02121073482384762	0.02672223862906417	0.03210913499343609	0.1588919070123338
1.77	0.2051118166711614	0.1138321155565116	-0.02359875672611542	0.1006545191204776	0.06762845198845273	0.08918972678575975	0.05389567592352226	0.03473257167992148	0.06089150366217612	0.1142548319944488	0.02705262104150205	0.009820831858914802	0.01998269901291294	0.02665035425388343	0.02999319227108298	0.1608155753879621
1.78	0.2217667751867329	0.1092414938609703	-0.02562729485210973	0.1016836090217967	0.0627476145149533	0.07878302833201435	0.05113504899640004	0.03282103895892443	0.05779820095745861	0.110783968137075	0.02796837985388461	0.01207877166075857	0.01887709446572867	0.02665409551053583	0.02776064182086939	0.1618425075813605
1.79	0.239334964699052	0.1042064241825092	-0.02686120631986897	0.1023844919419508	0.05789228743835021	0.06916560921214776	0.04843686535009433	0.03087312010659526	0.05459071431353639	0.106959524991412	0.02906358147175912	0.0147466563493598	0.0179185474286041	0.02675203341479155	0.02544779880725768	0.1619662668602903
1.8	0.257752146579353	0.09877331615189526	-0.02737627860927839	0.1027633471315685	0.05311941229516183	0.06036918729569653	0.04582877649021747	0.02890759152479689	0.05129815710325683	0.1028313791159183	0.0303473268092964	0.01783233222504174	0.01713121237397122	0.02696235729627362	0.02309347977414912	0.1611947273239041
1.81	0.2769372334992183	0.09299275179016395	-0.02724862660394879	0.1028296510329431	0.04848537151678411	0.05241332332356629	0.04333679269062402	0.0269430338745736	0.04794979129016724	0.09845465653316196	0.03182790044595326	0.02133966577651525	0.01653849640751896	0.02730249479623921	0.02073852156718677	0.1595496666203189
1.82	0.2967916330180104	0.08691891525933408	-0.02655335433053581	0.1025958632155587	0.04404553409169708	0.04530590225435586	0.04098502206922113	0.02499758961054281	0.04457474307450306	0.09388899850042362	0.03351260900085359	0.0252682450749253	0.01616278012510965	0.02778873506268827	0.01842526892824834	0.1570661530121892
1.83	0.3171988788480888	0.08060902218890956	-0.02536334709815127	0.1020770935724711	0.03985381025976881	0.0390437788161377	0.03879544288056434	0.02308873841375772	0.04120173445644471	0.08919773612612714	0.03540762517912834	0.02961311673897949	0.01602513681337268	0.02843586369825913	0.01619703799511404	0.1537917522237019
1.84	0.3380246030959906	0.07412275496489297	-0.0237482075384599	0.1012907562997922	0.03596221343064357	0.03361356326342592	0.0367877115340983	0.02123309325634173	0.03785883228514381	0.0844469909681934	0.03751783943130623	0.0343645651766807	0.01614505203593405	0.02925681713681453	0.01409756251982427	0.1497855807671307
1.85	0.3591168946661388	0.06752170885221515	-0.02177334527878857	0.1002562154664976	0.03242042768163861	0.02899252190946939	0.03497900761510796	0.0194462189763545	0.03457321531068039	0.07970471895678193	0.0398467205103649	0.03950794027173975	0.01654014581585661	0.03026236320973447	0.01217042925153425	0.1451172307604817
1.86	0.3803070795719248	0.0608688526904342	-0.01949922597963009	0.09899442763676271	0.02927537970415542	0.02514956651879837	0.03338391566891615	0.01774247457289277	0.03137095880301301	0.07503971436942239	0.04239618569875053	0.04502353890464619	0.01722589995789091	0.03146081371996282	0.01045850862099237	0.1398655876756628
1.87	0.4014109473375187	0.05422800704868164	-0.01698078149132088	0.0975275882762912	0.02657081488761555	0.02204630733583278	0.03201434209960605	0.01613487988439155	0.02827683590184858	0.07052058965690934	0.0451664814488497	0.05088654461055937	0.01821539353339808	0.03285777391610778	0.009003386617877786	0.1341175590693594
1.88	0.4222304346078991	0.04766334174641368	-0.01426697933058218	0.09587878946561511	0.02434687846440694	0.01963814627004935	0.03087946474620066	0.0146350068348684	0.02531413510302366	0.06621474624515382	0.04815607593527364	0.05706702831974927	0.01951905004070565	0.03445593300373528	0.007844803530900448	0.1279667307560458
1.89	0.4425557650443696	0.04123889345974063	-0.01140054683157901	0.09407169598594753	0.02263970406726728	0.01787538918498944	0.02998571278499958	0.01325289504406545	0.02250449388884821	0.06218735121335657	0.05136156632122927	0.06353001183651581	0.0211444001750853	0.0362548993577437	0.007020105001337179	0.1215119673267495
1.9	0.462168035696058	0.0350181029803292	-0.008417843200252939	0.09213024517961331	0.02148101310423292	0.01670435886304802	0.02933677529031006	0.01199699131863366	0.0198677490959408	0.05850033472826976	0.0547776045352099	0.07023559515296232	0.02309586449276632	0.03825108377312419	0.00656371067240019	0.114855975378435
1.91	0.4808422332489522	0.02906337070962261	-0.005348871089506233	0.09007837354912217	0.02089772871115171	0.0160684924230592	0.02893363750080102	0.01087411229974692	0.01742180489136061	0.05521142309934939	0.05839684531542899	0.07713914936053183	0.0253745605117756	0.04043763362631882	0.006506605640568998	0.1081038490581884
1.92	0.4983506547848359	0.02343562808657223	-0.002217417981308581	0.08793977022039291	0.02091160784981678	0.01590940826951179	0.02877464420367309	0.00988942924408307	0.01518251908374518	0.05237322230157253	0.06220991931034332	0.08419157848845063	0.02797813893423631	0.04280442010140018	0.006875859902182459	0.1013616178092539
1.93	0.5144666934418526	0.01819392186300303	0.0009586835136671362	0.08573765472717347	0.02153889475299614	0.01616792810755002	0.02885558963050345	0.009046473565773745	0.01316360804195336	0.05003236672088858	0.06620543282326903	0.09133965502403057	0.03090065373434034	0.04533807981235573	0.007694181013350641	0.09473481528391255
1.94	0.5289689296428792	0.01339500762081068	0.004167188377035496	0.08349457491001754	0.02278999873521204	0.01678503970596621	0.02916983301463497	0.008347161444792186	0.01137656993824392	0.04822874754245509	0.07036999489931818	0.09852643414731069	0.03413247086286812	0.04802211143518702	0.008979505263508976	0.08832708645622823
1.95	0.5416454459628284	0.00909294879066177	0.007400977819921854	0.08123222050974169	0.02466919964116286	0.01770278657633124	0.02970843863413417	0.007791835573170402	0.009830625513387032	0.04699483441195162	0.07468827177248347	0.1056917503935548	0.03766022021881187	0.05083702744533707	0.01074463279163214	0.08223884763883349
1.96	0.5522982614438129	0.005338717645102646	0.01065751766288955	0.07897124901144531	0.02717438496986544	0.01886507204689954	0.03046033877723904	0.007379321990759058	0.008532675138970887	0.04635510254416667	0.07914306772545635	0.1127727978124388	0.04146679524704887	0.05376056063819745	0.01299691216904794	0.07656601212809694
1.97	0.560747762117511	0.00217979523010363	0.01393825119887305	0.07673112202642407	0.03029682385141191	0.02021836756497667	0.03141251758697324	0.007106999953472247	0.007487270698070436	0.04632557537031574	0.08371543006007327	0.1197047915538021	0.04553140399615325	0.05676792447638574	0.0157379799620944	0.07139879300577082
